<svg version="1.1" id="Layer_1" xmlns="http://www.w3.org/2000/svg" xmlns:xlink="http://www.w3.org/1999/xlink" x="0px" y="0px"
	 width="100%" viewBox="0 0 3500 1440" enable-background="new 0 0 3500 1440" xml:space="preserve">
<path fill="#E0EAEF" opacity="1.000000" stroke="none" 
	d="
M3218.000000,1442.000000 
	C2145.333252,1442.000000 1073.666626,1442.000000 2.000000,1442.000000 
	C2.000000,962.000000 2.000000,482.000000 2.000000,2.000000 
	C1168.666626,2.000000 2335.333252,2.000000 3502.000000,2.000000 
	C3502.000000,482.000000 3502.000000,962.000000 3502.000000,1442.000000 
	C3407.666748,1442.000000 3313.333252,1442.000000 3218.000000,1442.000000 
M677.121460,812.786926 
	C681.952759,814.788818 686.784058,816.790710 692.448669,819.788818 
	C696.972961,822.516602 701.497192,825.244446 706.672913,829.128601 
	C711.753601,833.487915 716.834229,837.847229 722.373657,843.528809 
	C726.474365,848.036377 731.470703,850.650940 738.850769,851.325134 
	C741.534668,850.273254 744.555298,849.700134 746.846008,848.089233 
	C758.703796,839.750854 770.160522,830.828979 782.173462,822.728027 
	C793.554199,815.053284 805.571777,808.972473 820.165527,809.954468 
	C827.101562,810.421265 828.610657,807.055664 826.548645,800.307556 
	C823.453674,790.179443 820.657288,779.956299 817.929993,769.721252 
	C816.760193,765.331360 816.082642,760.810303 814.965820,755.280945 
	C805.371643,760.773682 796.494080,765.856201 786.129333,771.349915 
	C776.778564,774.597046 767.427795,777.844116 756.443542,781.002380 
	C748.981689,781.573669 741.519897,782.144958 732.384766,782.253357 
	C726.254333,781.546387 720.123840,780.839355 712.713318,779.324463 
	C707.950500,777.833496 703.187744,776.342590 697.388916,774.071716 
	C692.950073,772.029541 688.511292,769.987366 683.287781,766.848267 
	C674.763916,762.013000 666.245789,757.165833 656.309143,752.136780 
	C656.309143,757.712585 656.530518,761.372986 656.256653,764.996033 
	C655.856384,770.292053 655.695007,775.719238 654.342712,780.800720 
	C652.737549,786.832581 650.266479,792.690125 647.648499,798.383118 
	C643.901917,806.530273 645.941589,810.054138 655.125427,810.253052 
	C656.083435,810.273743 657.051758,809.820679 659.665955,809.858765 
	C665.122070,810.539185 670.578186,811.219604 677.121460,812.786926 
M642.510498,717.581238 
	C649.583130,721.245117 656.655823,724.908936 664.501221,729.672607 
	C672.883301,734.070251 681.265381,738.467896 690.572693,743.809937 
	C697.719421,747.139954 704.866089,750.470032 713.316101,754.615906 
	C720.864380,755.788452 728.412598,756.960999 737.334045,758.635376 
	C751.831970,758.760559 765.708435,756.463867 779.484802,747.975464 
	C783.242737,745.545044 786.861450,742.859131 790.780457,740.724487 
	C822.607727,723.389099 854.491638,706.157654 886.356445,688.891174 
	C888.399109,687.784363 890.533752,686.806213 892.442322,685.500244 
	C900.206116,680.187927 900.335938,671.895874 892.188660,667.028076 
	C882.817932,661.429260 872.958801,656.648010 862.392090,650.397461 
	C855.369934,646.680237 848.347778,642.963013 840.361389,638.207092 
	C833.619446,634.696045 826.877563,631.184998 819.372375,626.544373 
	C812.888306,623.134705 806.404297,619.725098 798.949341,615.344177 
	C791.946228,611.635254 784.943176,607.926270 776.956299,603.211060 
	C771.675842,601.234070 766.395325,599.257080 759.737122,596.401611 
	C750.501221,595.732422 741.265259,595.063232 730.389954,594.127747 
	C715.466980,595.622925 702.033264,600.986572 688.469543,609.950439 
	C672.220642,619.089722 655.971741,628.228943 638.294312,637.664062 
	C621.076233,647.140137 603.762146,656.447327 586.677124,666.157471 
	C576.876099,671.727966 576.875122,680.357727 586.432617,686.276367 
	C590.073608,688.531006 594.115967,690.137573 598.900696,693.060425 
	C603.997925,695.909851 609.095154,698.759338 614.141052,702.033508 
	C614.141052,702.033508 614.216370,702.454712 614.682068,704.168518 
	C615.212097,726.395081 614.218628,748.442444 610.140930,770.433289 
	C608.364624,780.012512 609.649719,790.159363 609.048584,801.809326 
	C609.048584,808.957153 609.048584,816.104980 609.048584,823.212036 
	C617.534302,823.212036 624.641602,823.212036 632.024414,823.212036 
	C632.024414,807.663208 632.024414,792.823669 632.308838,776.223145 
	C631.117676,768.357971 630.023132,760.476624 628.714417,752.631042 
	C626.301758,738.166809 625.860657,723.676086 629.013977,709.879578 
	C633.256653,712.076172 637.499390,714.272705 642.510498,717.581238 
M2150.556641,807.231079 
	C2168.766357,807.231079 2186.976074,807.231079 2205.707031,807.231079 
	C2206.083008,802.388062 2206.382080,798.534851 2206.692871,794.532166 
	C2199.667969,793.674316 2193.521973,792.923828 2187.739990,792.217773 
	C2185.318359,778.435120 2185.270264,742.855408 2187.428711,734.825439 
	C2210.939697,734.825439 2234.416504,734.825439 2257.826172,734.825439 
	C2257.826172,751.810242 2258.127930,768.113403 2257.697510,784.397095 
	C2257.486328,792.385193 2256.846680,792.343384 2249.195312,794.095093 
	C2246.055176,794.813965 2242.966797,795.759521 2239.437988,796.714844 
	C2239.876953,800.480530 2240.248047,803.665894 2240.600830,806.692871 
	C2259.963623,806.692871 2278.575195,806.692871 2298.155273,806.692871 
	C2298.699951,802.947144 2299.288330,798.901245 2299.938721,794.428650 
	C2295.874023,794.053894 2292.921387,793.878967 2289.998047,793.486084 
	C2286.807373,793.057190 2283.643555,792.426514 2279.576416,791.731445 
	C2278.095215,749.035767 2277.543213,706.944336 2279.912842,664.744751 
	C2286.444336,663.904480 2291.621338,663.238525 2297.551025,662.475708 
	C2297.032471,657.840942 2296.608154,654.048523 2296.205811,650.449585 
	C2277.287842,650.449585 2259.397461,650.449585 2240.727539,650.449585 
	C2240.493652,654.327881 2240.284668,657.793701 2240.073975,661.287842 
	C2246.038086,662.565918 2251.155518,663.662598 2256.694824,664.849609 
	C2259.736572,683.745361 2258.003418,702.271606 2258.387695,721.630127 
	C2233.955078,721.630127 2210.467041,721.630127 2185.911621,721.630127 
	C2186.392090,702.588379 2184.785400,683.524902 2187.329834,664.836304 
	C2193.911133,663.873352 2199.001709,663.128540 2204.426514,662.334839 
	C2204.082764,657.732666 2203.817383,654.180359 2203.540039,650.469238 
	C2184.776123,650.469238 2166.615967,650.469238 2147.933105,650.469238 
	C2147.676758,654.419250 2147.450439,657.905762 2147.230225,661.301147 
	C2153.269775,662.613037 2158.372314,663.721313 2163.156250,664.760437 
	C2166.785645,682.642883 2166.672607,776.168823 2163.059326,792.256897 
	C2157.656494,793.734497 2152.052002,795.267212 2145.624756,797.024963 
	C2146.910889,800.961731 2147.904297,804.003174 2150.556641,807.231079 
M2461.448242,803.754578 
	C2462.718262,804.556274 2463.970215,806.016968 2465.260986,806.051941 
	C2473.202637,806.266724 2481.152832,806.159668 2489.937988,806.159668 
	C2490.414062,802.659241 2490.962158,798.629700 2491.502930,794.655090 
	C2485.708740,793.654785 2481.212891,792.878662 2476.404053,792.048462 
	C2475.663574,785.458191 2474.443848,779.531738 2474.422363,773.600952 
	C2474.291748,737.625671 2474.381592,701.649231 2474.538330,665.673828 
	C2474.564453,659.689697 2475.291992,653.709473 2475.671631,647.725952 
	C2475.973145,642.976685 2474.035889,639.811340 2469.017578,639.736816 
	C2458.167236,639.575684 2447.312500,639.687195 2436.050293,639.687195 
	C2435.742920,643.144714 2435.456299,646.371094 2435.122559,650.126831 
	C2441.593506,651.579712 2447.643799,652.938171 2453.954102,654.355042 
	C2457.631104,669.507019 2455.747803,684.388123 2456.204834,698.734741 
	C2445.924561,697.573425 2436.436768,695.675903 2426.935547,695.606812 
	C2409.249756,695.478088 2396.119873,704.112305 2389.042725,720.155090 
	C2379.572998,741.621094 2379.598633,763.761719 2389.500244,785.014832 
	C2401.555420,810.890259 2432.094238,816.084595 2452.793945,796.554077 
	C2454.529053,794.916870 2456.391113,793.414246 2458.877930,791.255737 
	C2459.743896,795.793457 2460.357666,799.009216 2461.448242,803.754578 
M1154.134644,723.047974 
	C1159.778809,716.073303 1162.659180,707.937988 1163.104248,699.136169 
	C1164.328857,674.919922 1154.781982,656.194397 1130.117065,650.359680 
	C1125.296265,649.219299 1120.214111,648.505798 1115.280396,648.638489 
	C1094.381836,649.200867 1073.494019,650.156616 1051.877197,650.996826 
	C1051.526001,653.966553 1051.111694,657.469543 1050.664185,661.252991 
	C1056.550659,662.496704 1061.674438,663.579224 1066.620972,664.624390 
	C1070.760010,680.727051 1070.734741,776.402893 1066.569214,792.377136 
	C1061.427002,793.720825 1056.060303,795.123108 1049.956787,796.718018 
	C1050.602173,800.519470 1051.171753,803.874573 1051.650391,806.694580 
	C1071.802124,806.694580 1090.649048,806.694580 1110.026855,806.694580 
	C1110.611572,802.572021 1111.147949,798.789978 1111.752930,794.524780 
	C1104.313110,793.715454 1097.815430,793.008667 1090.547119,792.218018 
	C1090.547119,775.249512 1090.547119,759.109985 1090.547119,742.001404 
	C1097.857300,742.001404 1105.107300,742.282776 1112.328247,741.943787 
	C1128.157837,741.200623 1142.353271,736.428772 1154.134644,723.047974 
M2810.794434,750.894531 
	C2810.564209,756.546326 2810.660156,762.235168 2810.022949,767.840698 
	C2809.173584,775.310791 2806.096191,781.955017 2800.580811,787.194153 
	C2793.431396,793.985901 2784.855957,795.770691 2775.598633,792.906250 
	C2766.400146,790.060120 2763.181396,782.446777 2762.067627,773.728699 
	C2761.605713,770.111511 2761.604492,766.414307 2761.650635,762.756775 
	C2761.885986,744.109375 2762.193604,725.462769 2762.501709,706.816345 
	C2762.626465,699.287842 2761.437256,697.648621 2754.444336,697.466187 
	C2745.870117,697.242493 2737.285645,697.412842 2728.045898,697.412842 
	C2727.717285,700.466003 2727.338623,703.984924 2726.937012,707.715271 
	C2732.189941,709.390686 2736.832520,710.871460 2742.705078,712.744507 
	C2743.030762,728.199341 2743.124512,743.462341 2743.760986,758.702698 
	C2744.134521,767.643738 2744.607178,776.707275 2746.413330,785.430420 
	C2748.740723,796.673401 2755.776123,804.651733 2767.414795,807.065613 
	C2783.319580,810.364380 2797.949219,808.266113 2809.262207,795.061462 
	C2810.242188,793.917664 2811.373779,792.903748 2813.265625,790.988770 
	C2814.532227,796.658264 2815.512207,801.044922 2816.664062,806.200317 
	C2825.717041,806.200317 2834.592285,806.200317 2844.486084,806.200317 
	C2844.942871,802.651550 2845.465332,798.591797 2845.983887,794.562439 
	C2840.356201,793.649292 2835.821045,792.913452 2830.566162,792.060852 
	C2829.970215,782.862427 2828.922852,774.266418 2828.955078,765.674500 
	C2829.028809,746.031067 2829.671143,726.390320 2829.997803,706.747009 
	C2830.125244,699.078918 2828.948975,697.645325 2821.783691,697.467834 
	C2812.845215,697.246399 2803.897217,697.414734 2794.228760,697.414734 
	C2793.986084,700.408508 2793.698242,703.958923 2793.388672,707.776367 
	C2796.141602,708.604675 2798.309326,709.370850 2800.532715,709.905640 
	C2809.082275,711.962097 2809.393066,711.914185 2809.998047,720.989380 
	C2810.617188,730.279480 2810.557373,739.614868 2810.794434,750.894531 
M1454.298706,704.399597 
	C1454.298706,702.236694 1454.298706,700.073792 1454.298706,696.863586 
	C1443.817993,696.863586 1434.317993,696.863586 1424.607178,696.863586 
	C1424.607178,686.525269 1423.869873,677.168701 1424.769409,667.972351 
	C1426.361816,651.692078 1434.367920,646.337646 1451.505493,649.546753 
	C1452.566650,655.356567 1453.679565,661.450256 1454.802856,667.600220 
	C1458.509644,667.600220 1461.993408,667.600220 1465.569824,667.600220 
	C1466.340210,657.765381 1467.060913,648.565491 1467.852783,638.456238 
	C1459.463745,637.722961 1451.911621,636.446655 1444.372314,636.517578 
	C1420.358887,636.743530 1406.729370,650.561523 1406.259644,674.592590 
	C1406.136597,680.886780 1406.241089,687.185303 1406.241089,693.778259 
	C1400.181519,696.095642 1394.672852,698.202393 1388.634521,700.511719 
	C1389.193970,703.719971 1389.683960,706.529175 1390.153076,709.219360 
	C1395.785767,709.477356 1400.655762,709.700500 1406.358276,709.961731 
	C1405.348389,737.786926 1408.048462,765.004822 1404.461548,792.105530 
	C1398.436523,793.698425 1393.357056,795.041260 1387.770752,796.518127 
	C1388.047363,800.000061 1388.302856,803.217529 1388.573120,806.620361 
	C1407.934692,806.620361 1426.695801,806.620361 1445.892700,806.620361 
	C1446.323608,802.257202 1446.699951,798.446655 1447.085205,794.546265 
	C1439.482666,793.698486 1432.960205,792.971191 1425.843018,792.177551 
	C1422.668091,764.496094 1424.855469,737.395569 1424.062256,709.513367 
	C1433.020752,709.513367 1440.647461,709.529358 1448.274170,709.504639 
	C1450.901978,709.496094 1453.855957,709.931213 1454.298706,704.399597 
M2677.414795,806.495239 
	C2694.917236,802.050232 2705.325928,790.440857 2710.071533,773.506592 
	C2714.296143,758.429871 2714.062744,743.170532 2709.666016,728.203064 
	C2703.950684,708.746094 2689.042236,697.099792 2668.813477,695.699463 
	C2664.513916,695.401855 2660.150879,695.363220 2655.859375,695.717346 
	C2636.401123,697.323303 2622.751953,707.192200 2616.044922,725.535522 
	C2609.662842,742.990051 2609.720703,760.850403 2616.080322,778.313416 
	C2622.480225,795.887329 2635.602539,805.786743 2654.062012,807.766479 
	C2661.220947,808.534302 2668.596191,807.282166 2677.414795,806.495239 
M1805.318359,695.416748 
	C1779.970947,697.070618 1765.242676,708.559265 1759.109131,731.805054 
	C1755.198486,746.626465 1755.530884,761.509521 1760.302612,776.057312 
	C1765.956299,793.293823 1777.904053,803.961243 1795.776978,807.376648 
	C1800.940430,808.363403 1806.382446,808.345703 1811.671753,808.142273 
	C1832.763916,807.330994 1848.080566,795.662598 1854.523315,775.436768 
	C1859.837524,758.754272 1859.533569,741.947449 1853.799316,725.474670 
	C1848.351685,709.824646 1837.133179,700.112122 1820.918579,696.601929 
	C1816.415771,695.627136 1811.670654,695.771790 1805.318359,695.416748 
M1333.760498,806.898010 
	C1352.526001,802.474365 1363.542236,790.296265 1368.201660,772.034546 
	C1371.894043,757.563110 1371.729370,742.954773 1367.555908,728.662476 
	C1362.473877,711.258972 1350.935181,700.081177 1332.970581,696.517212 
	C1327.176880,695.367798 1321.037476,695.375549 1315.095581,695.663635 
	C1293.970093,696.688049 1278.558594,708.633057 1272.582397,728.811218 
	C1268.142700,743.801697 1268.110107,759.074097 1272.337280,774.106934 
	C1278.217529,795.018738 1294.451294,807.472534 1316.291992,808.164368 
	C1321.581421,808.331909 1326.897217,807.660950 1333.760498,806.898010 
M2535.945557,782.759583 
	C2530.437500,774.241333 2526.994385,765.171387 2528.127197,753.956421 
	C2550.004395,753.956421 2571.555664,753.956421 2592.641113,753.956421 
	C2601.711914,737.025513 2592.787354,708.932312 2576.218506,700.029968 
	C2552.604248,687.341919 2521.710205,698.085999 2511.708496,722.821228 
	C2504.443115,740.790649 2504.152100,759.265076 2510.520996,777.509033 
	C2516.379639,794.290283 2528.563965,804.530029 2546.080322,807.486023 
	C2560.541260,809.926514 2574.639160,808.021057 2587.681152,800.795959 
	C2590.511475,799.227905 2593.108643,797.238770 2596.149414,795.220276 
	C2593.777100,791.533264 2591.871582,788.571960 2590.282715,786.102600 
	C2581.755127,788.691467 2574.289551,791.531799 2566.568604,793.166626 
	C2555.181885,795.577515 2544.642822,793.838745 2535.945557,782.759583 
M1544.985962,801.899475 
	C1548.255737,799.794800 1551.525391,797.690125 1555.293335,795.264771 
	C1552.924561,791.434509 1551.072388,788.439697 1550.108887,786.881653 
	C1538.380615,789.446411 1528.172363,792.359863 1517.760742,793.757263 
	C1508.048950,795.060852 1500.337402,790.204407 1494.855957,782.264587 
	C1489.241211,774.131897 1486.761230,764.986450 1486.770630,754.283936 
	C1508.640503,754.283936 1530.157837,754.283936 1552.407349,754.283936 
	C1553.712280,750.456055 1555.712036,747.146057 1555.828979,743.770996 
	C1556.190063,733.333923 1554.198975,723.198608 1549.260986,713.884094 
	C1545.209229,706.241028 1538.977783,700.933350 1530.797485,697.942810 
	C1503.632812,688.012207 1476.120117,701.817444 1468.525391,729.545227 
	C1464.588501,743.918823 1464.447998,758.541443 1468.277222,772.994751 
	C1473.947754,794.398254 1490.356323,807.282898 1512.498657,808.243896 
	C1523.319336,808.713562 1533.732666,807.212524 1544.985962,801.899475 
M1582.560181,804.401428 
	C1594.104126,808.471741 1606.036743,809.199524 1618.031372,807.753784 
	C1637.712524,805.381897 1647.672485,793.047119 1646.256226,773.636963 
	C1645.537842,763.789490 1640.227417,756.682190 1632.267944,751.821899 
	C1624.352661,746.988647 1615.705078,743.371460 1607.604858,738.818298 
	C1602.731079,736.078796 1597.659302,733.188416 1593.804565,729.259216 
	C1588.294922,723.643005 1589.369141,715.567200 1595.200073,710.744446 
	C1600.540161,706.327576 1615.524170,705.113708 1620.993774,708.974976 
	C1622.441162,709.996826 1623.561646,712.063660 1623.980713,713.850281 
	C1625.182007,718.971802 1625.946655,724.195740 1626.939697,729.692810 
	C1630.708862,729.692810 1634.528931,729.692810 1638.963623,729.692810 
	C1639.737305,719.339905 1640.471558,709.514160 1641.193726,699.851685 
	C1628.909912,695.956665 1608.301758,694.071106 1598.280151,696.195618 
	C1586.918823,698.604248 1577.760620,704.103943 1573.984497,715.890808 
	C1570.109619,727.986633 1573.618652,739.789001 1584.566650,747.681396 
	C1591.509644,752.686584 1599.608276,756.072937 1607.109863,760.324158 
	C1612.583252,763.426025 1618.446411,766.136536 1623.207642,770.128479 
	C1630.068726,775.881042 1629.847656,786.447510 1623.634521,792.264587 
	C1617.309570,798.186462 1597.990723,798.667053 1591.620972,792.705505 
	C1589.836182,791.035095 1588.716431,788.256287 1588.129883,785.786804 
	C1586.936401,780.764221 1586.313965,775.606018 1585.448242,770.456177 
	C1581.334961,770.456177 1577.769409,770.456177 1573.718018,770.456177 
	C1572.941895,780.417603 1572.198120,789.964417 1571.427612,799.852356 
	C1575.039917,801.406616 1578.051392,802.702454 1582.560181,804.401428 
M1707.284546,742.038330 
	C1700.716553,738.187744 1693.387573,735.205994 1687.761719,730.279602 
	C1679.663452,723.187866 1682.785889,711.035645 1693.187988,708.312439 
	C1698.453735,706.933960 1704.321899,707.748779 1709.916992,707.770935 
	C1714.287354,707.788269 1716.548096,710.563049 1717.293701,714.529968 
	C1718.206787,719.387024 1718.816406,724.301147 1719.636353,729.711914 
	C1723.597778,729.711914 1727.472046,729.711914 1731.812134,729.711914 
	C1732.632568,719.404785 1733.439087,709.273804 1734.246582,699.129089 
	C1719.916016,695.932434 1706.719482,694.394592 1693.388062,695.918091 
	C1674.945435,698.025879 1663.973877,711.276184 1665.885254,728.547363 
	C1666.873169,737.472839 1671.641724,744.257263 1678.942261,748.853271 
	C1686.232666,753.443115 1694.199463,756.944397 1701.729736,761.172546 
	C1706.924683,764.089478 1712.576416,766.703674 1716.796875,770.737122 
	C1725.110596,778.682434 1721.547607,792.366821 1710.611450,795.585144 
	C1703.118652,797.790161 1695.304688,797.750427 1688.109497,794.511780 
	C1685.471680,793.324463 1682.747314,790.394775 1681.857056,787.672852 
	C1680.140747,782.425842 1679.702148,776.760925 1678.620728,770.627808 
	C1674.948853,770.627808 1671.147949,770.627808 1666.691284,770.627808 
	C1665.843140,780.365112 1665.016113,789.860840 1664.163452,799.650513 
	C1681.250610,808.263306 1698.670898,810.570801 1716.846802,806.457153 
	C1728.609985,803.794861 1736.111572,796.726379 1738.622803,784.513916 
	C1741.228882,771.841003 1738.109741,761.216064 1727.618042,753.589905 
	C1721.745361,749.321167 1715.005371,746.245605 1707.284546,742.038330 
M2019.427612,749.574646 
	C2027.386230,753.716614 2035.426025,757.711731 2043.272583,762.056152 
	C2047.898682,764.617615 2052.731689,767.178772 2056.558838,770.724976 
	C2062.703857,776.418701 2062.251709,786.749268 2056.388428,792.248169 
	C2050.090820,798.154480 2030.649536,798.755127 2024.374023,792.692749 
	C2022.194702,790.587402 2021.058105,787.002808 2020.336670,783.887451 
	C2019.380981,779.759705 2019.300049,775.429382 2018.782837,770.625122 
	C2014.633179,770.625122 2010.844238,770.625122 2006.495483,770.625122 
	C2005.675049,780.432312 2004.880737,789.925720 2004.066040,799.663513 
	C2020.914429,808.193726 2038.065674,810.619446 2055.860107,806.629761 
	C2070.828369,803.273560 2077.917480,794.534790 2079.133545,779.374695 
	C2079.967285,768.982178 2076.496094,760.098572 2067.996582,754.078247 
	C2061.529785,749.497620 2054.279541,746.006409 2047.300293,742.171814 
	C2042.059570,739.292419 2036.454102,737.012939 2031.443604,733.793274 
	C2024.239990,729.164368 2021.943481,723.481934 2023.860107,716.979614 
	C2026.001099,709.715637 2031.932251,707.669373 2038.488892,707.025513 
	C2041.747681,706.705505 2045.095947,707.421692 2048.407227,707.482788 
	C2054.149902,707.588684 2056.707764,711.015564 2057.536377,716.143127 
	C2058.258545,720.614929 2058.738525,725.125793 2059.327148,729.632080 
	C2063.823730,729.632080 2067.636230,729.632080 2071.622559,729.632080 
	C2072.462891,719.161621 2073.252930,709.318787 2074.064941,699.201233 
	C2060.105225,695.881348 2046.945801,694.469543 2033.647095,695.876648 
	C2014.709473,697.880554 2003.627686,711.341919 2005.785767,729.091858 
	C2006.824219,737.632263 2011.679688,743.721802 2019.427612,749.574646 
M1897.815674,697.412903 
	C1890.846313,697.070190 1883.876831,696.727539 1876.186768,696.349365 
	C1875.765381,700.206116 1875.377075,703.760498 1874.940674,707.755066 
	C1880.779541,709.336975 1886.119751,710.783752 1891.988647,712.373718 
	C1894.562134,739.297852 1895.007324,765.696655 1891.720703,792.153015 
	C1885.667358,793.751648 1880.602295,795.089294 1875.062134,796.552368 
	C1875.486328,800.204468 1875.858398,803.407837 1876.216309,806.488892 
	C1895.554932,806.488892 1914.303589,806.488892 1933.562012,806.488892 
	C1933.833496,802.029419 1934.064087,798.242554 1934.291748,794.502625 
	C1926.626587,793.660095 1920.078125,792.940308 1913.506592,792.217957 
	C1913.042480,789.843445 1912.475586,788.242065 1912.454590,786.633606 
	C1912.250000,770.974060 1912.052124,755.313232 1912.072510,739.653076 
	C1912.076294,736.711670 1912.832520,733.710327 1913.621704,730.841248 
	C1917.543091,716.585876 1926.348877,710.498291 1942.668335,711.467163 
	C1943.738525,718.320312 1944.847290,725.420349 1946.050293,733.124023 
	C1949.809326,733.124023 1953.620605,733.124023 1957.803711,733.124023 
	C1958.513062,722.828918 1959.224121,712.885132 1959.857544,702.936340 
	C1959.959717,701.331482 1959.716309,699.704590 1959.619995,697.842957 
	C1952.057617,694.615784 1944.437744,695.154602 1936.866333,695.951294 
	C1925.584717,697.138306 1918.098999,704.813293 1910.184937,713.191711 
	C1909.509888,709.816895 1908.807007,707.609924 1908.670898,705.368530 
	C1908.313843,699.489685 1905.163940,697.077454 1897.815674,697.412903 
M1201.437256,697.425354 
	C1193.255371,697.425354 1185.073486,697.425354 1176.441772,697.425354 
	C1176.286255,700.929565 1176.141968,704.183777 1175.977783,707.882080 
	C1181.419312,709.295898 1186.476562,710.609863 1192.836182,712.262268 
	C1195.111084,738.899963 1195.173950,765.543274 1192.794678,792.084839 
	C1186.398804,793.792053 1181.358765,795.137390 1175.795654,796.622375 
	C1176.166748,800.247620 1176.488892,803.395447 1176.825562,806.684814 
	C1196.086304,806.684814 1214.603516,806.684814 1233.849976,806.684814 
	C1234.379639,802.679504 1234.912720,798.646851 1235.454834,794.546875 
	C1227.616333,793.685669 1221.092773,792.968933 1214.043213,792.194397 
	C1212.034912,772.072266 1210.708862,752.524109 1213.962646,733.076904 
	C1216.541382,717.664917 1226.037476,710.801025 1243.430786,711.354126 
	C1244.555542,718.381775 1245.723022,725.675903 1246.947388,733.325745 
	C1250.740112,733.325745 1254.307861,733.325745 1258.902710,733.325745 
	C1259.526123,721.294495 1260.137207,709.500854 1260.755493,697.568726 
	C1250.900146,694.768250 1241.635742,693.732239 1233.353882,697.198181 
	C1225.178467,700.619751 1218.055664,706.556519 1210.427002,711.417908 
	C1208.815674,706.687195 1211.552246,699.116699 1201.437256,697.425354 
M2874.058838,727.080566 
	C2874.064209,742.411316 2873.904297,757.744934 2874.162354,773.071411 
	C2874.257080,778.692383 2874.834717,784.411621 2876.077637,789.884949 
	C2878.725586,801.547913 2886.097656,807.309021 2897.919678,808.243774 
	C2909.386963,809.150391 2918.551270,804.632690 2927.168213,796.708191 
	C2925.246582,793.794373 2923.481934,791.118896 2921.612549,788.284546 
	C2917.150391,790.120667 2913.310547,792.130310 2909.229248,793.294006 
	C2899.679932,796.016846 2893.682373,791.918640 2892.309326,781.992676 
	C2891.946289,779.368042 2892.029541,776.672058 2892.026367,774.008728 
	C2892.003662,755.345215 2891.991211,736.681580 2892.034912,718.018188 
	C2892.040771,715.447510 2892.374268,712.877625 2892.605713,709.605042 
	C2902.359131,709.605042 2911.600098,709.605042 2921.605957,709.605042 
	C2921.935547,705.393677 2922.211914,701.863464 2922.555420,697.474121 
	C2912.245361,697.474121 2902.671631,697.474121 2892.079590,697.474121 
	C2892.079590,689.489990 2892.079590,682.288025 2892.079590,675.484070 
	C2887.282227,673.354553 2883.771484,673.144653 2882.224609,677.832764 
	C2878.144775,690.197449 2870.472900,698.424072 2856.272705,699.639404 
	C2856.840576,703.404053 2857.262207,706.200256 2857.706787,709.147339 
	C2863.328857,709.425903 2868.213623,709.667969 2874.058838,709.957581 
	C2874.058838,715.265564 2874.058838,720.188721 2874.058838,727.080566 
M2352.104736,758.867676 
	C2352.511963,741.596802 2352.888672,724.325073 2353.342285,707.055420 
	C2353.514893,700.489807 2352.327637,697.808594 2347.411865,697.611084 
	C2337.230957,697.202148 2327.021973,697.487793 2316.231201,697.487793 
	C2316.067627,700.743408 2315.890625,704.260559 2315.700684,708.038086 
	C2321.447021,709.460144 2326.514893,710.714294 2332.516846,712.199585 
	C2334.674561,739.194824 2335.427734,765.792725 2332.065186,792.199646 
	C2325.780273,793.862488 2320.775635,795.186646 2315.375244,796.615417 
	C2315.856689,800.540283 2316.244385,803.699951 2316.605713,806.644409 
	C2334.553223,806.644409 2351.714355,806.644409 2369.514648,806.644409 
	C2369.826172,802.319824 2370.103516,798.467957 2370.385010,794.557739 
	C2364.430664,793.705688 2359.274658,792.967834 2353.015625,792.072144 
	C2352.700684,781.269165 2352.402588,771.042114 2352.104736,758.867676 
M1971.868896,639.680542 
	C1965.956421,639.697205 1968.152344,643.942627 1968.354126,646.811157 
	C1969.379883,661.381775 1970.567261,675.941040 1971.758423,690.499329 
	C1971.803345,691.049438 1972.468140,691.548767 1973.125854,692.463806 
	C1976.425171,692.463806 1979.996216,692.463806 1984.373657,692.463806 
	C1985.280151,674.965759 1986.169189,657.806213 1987.109253,639.663513 
	C1982.078247,639.663513 1977.819092,639.663513 1971.868896,639.680542 
M2336.979736,674.525513 
	C2350.132080,677.679382 2357.589844,671.689209 2356.024170,659.228882 
	C2355.158447,652.338989 2351.027100,648.209473 2344.527344,647.737000 
	C2337.299072,647.211609 2332.124756,650.728271 2330.616211,657.658997 
	C2329.269287,663.847595 2330.251465,669.539368 2336.979736,674.525513 
z"/>
<path fill="#093647" opacity="1.000000" stroke="none" 
	d="
M2149.727295,807.137817 
	C2147.904297,804.003174 2146.910889,800.961731 2145.624756,797.024963 
	C2152.052002,795.267212 2157.656494,793.734497 2163.059326,792.256897 
	C2166.672607,776.168823 2166.785645,682.642883 2163.156250,664.760437 
	C2158.372314,663.721313 2153.269775,662.613037 2147.230225,661.301147 
	C2147.450439,657.905762 2147.676758,654.419250 2147.933105,650.469238 
	C2166.615967,650.469238 2184.776123,650.469238 2203.540039,650.469238 
	C2203.817383,654.180359 2204.082764,657.732666 2204.426514,662.334839 
	C2199.001709,663.128540 2193.911133,663.873352 2187.329834,664.836304 
	C2184.785400,683.524902 2186.392090,702.588379 2185.911621,721.630127 
	C2210.467041,721.630127 2233.955078,721.630127 2258.387695,721.630127 
	C2258.003418,702.271606 2259.736572,683.745361 2256.694824,664.849609 
	C2251.155518,663.662598 2246.038086,662.565918 2240.073975,661.287842 
	C2240.284668,657.793701 2240.493652,654.327881 2240.727539,650.449585 
	C2259.397461,650.449585 2277.287842,650.449585 2296.205811,650.449585 
	C2296.608154,654.048523 2297.032471,657.840942 2297.551025,662.475708 
	C2291.621338,663.238525 2286.444336,663.904480 2279.912842,664.744751 
	C2277.543213,706.944336 2278.095215,749.035767 2279.576416,791.731445 
	C2283.643555,792.426514 2286.807373,793.057190 2289.998047,793.486084 
	C2292.921387,793.878967 2295.874023,794.053894 2299.938721,794.428650 
	C2299.288330,798.901245 2298.699951,802.947144 2298.155273,806.692871 
	C2278.575195,806.692871 2259.963623,806.692871 2240.600830,806.692871 
	C2240.248047,803.665894 2239.876953,800.480530 2239.437988,796.714844 
	C2242.966797,795.759521 2246.055176,794.813965 2249.195312,794.095093 
	C2256.846680,792.343384 2257.486328,792.385193 2257.697510,784.397095 
	C2258.127930,768.113403 2257.826172,751.810242 2257.826172,734.825439 
	C2234.416504,734.825439 2210.939697,734.825439 2187.428711,734.825439 
	C2185.270264,742.855408 2185.318359,778.435120 2187.739990,792.217773 
	C2193.521973,792.923828 2199.667969,793.674316 2206.692871,794.532166 
	C2206.382080,798.534851 2206.083008,802.388062 2205.707031,807.231079 
	C2186.976074,807.231079 2168.766357,807.231079 2149.727295,807.137817 
z"/>
<path fill="#083547" opacity="1.000000" stroke="none" 
	d="
M2461.209961,802.989746 
	C2460.357666,799.009216 2459.743896,795.793457 2458.877930,791.255737 
	C2456.391113,793.414246 2454.529053,794.916870 2452.793945,796.554077 
	C2432.094238,816.084595 2401.555420,810.890259 2389.500244,785.014832 
	C2379.598633,763.761719 2379.572998,741.621094 2389.042725,720.155090 
	C2396.119873,704.112305 2409.249756,695.478088 2426.935547,695.606812 
	C2436.436768,695.675903 2445.924561,697.573425 2456.204834,698.734741 
	C2455.747803,684.388123 2457.631104,669.507019 2453.954102,654.355042 
	C2447.643799,652.938171 2441.593506,651.579712 2435.122559,650.126831 
	C2435.456299,646.371094 2435.742920,643.144714 2436.050293,639.687195 
	C2447.312500,639.687195 2458.167236,639.575684 2469.017578,639.736816 
	C2474.035889,639.811340 2475.973145,642.976685 2475.671631,647.725952 
	C2475.291992,653.709473 2474.564453,659.689697 2474.538330,665.673828 
	C2474.381592,701.649231 2474.291748,737.625671 2474.422363,773.600952 
	C2474.443848,779.531738 2475.663574,785.458191 2476.404053,792.048462 
	C2481.212891,792.878662 2485.708740,793.654785 2491.502930,794.655090 
	C2490.962158,798.629700 2490.414062,802.659241 2489.937988,806.159668 
	C2481.152832,806.159668 2473.202637,806.266724 2465.260986,806.051941 
	C2463.970215,806.016968 2462.718262,804.556274 2461.209961,802.989746 
M2429.696289,708.848206 
	C2416.585693,709.961243 2409.446533,718.052124 2405.984863,729.840515 
	C2401.664551,744.552002 2401.887207,759.408875 2405.996338,774.166870 
	C2406.703857,776.707703 2407.779541,779.201111 2409.041016,781.523254 
	C2415.148926,792.765015 2425.693848,796.815002 2437.816650,792.670044 
	C2449.823486,788.564636 2455.129883,779.005005 2455.708984,767.437622 
	C2456.555176,750.536804 2455.926514,733.562073 2455.926514,716.724060 
	C2448.381104,711.118225 2440.088135,709.152771 2429.696289,708.848206 
z"/>
<path fill="#093647" opacity="1.000000" stroke="none" 
	d="
M1153.684082,723.607910 
	C1142.353271,736.428772 1128.157837,741.200623 1112.328247,741.943787 
	C1105.107300,742.282776 1097.857300,742.001404 1090.547119,742.001404 
	C1090.547119,759.109985 1090.547119,775.249512 1090.547119,792.218018 
	C1097.815430,793.008667 1104.313110,793.715454 1111.752930,794.524780 
	C1111.147949,798.789978 1110.611572,802.572021 1110.026855,806.694580 
	C1090.649048,806.694580 1071.802124,806.694580 1051.650391,806.694580 
	C1051.171753,803.874573 1050.602173,800.519470 1049.956787,796.718018 
	C1056.060303,795.123108 1061.427002,793.720825 1066.569214,792.377136 
	C1070.734741,776.402893 1070.760010,680.727051 1066.620972,664.624390 
	C1061.674438,663.579224 1056.550659,662.496704 1050.664185,661.252991 
	C1051.111694,657.469543 1051.526001,653.966553 1051.877197,650.996826 
	C1073.494019,650.156616 1094.381836,649.200867 1115.280396,648.638489 
	C1120.214111,648.505798 1125.296265,649.219299 1130.117065,650.359680 
	C1154.781982,656.194397 1164.328857,674.919922 1163.104248,699.136169 
	C1162.659180,707.937988 1159.778809,716.073303 1153.684082,723.607910 
M1089.651001,724.727295 
	C1089.640137,727.454529 1089.510132,730.339783 1093.469116,730.226807 
	C1101.730469,729.991089 1110.190552,730.701538 1118.201904,729.139709 
	C1130.185913,726.803406 1138.764648,719.028809 1141.003418,706.848206 
	C1142.402954,699.234131 1142.119507,690.909668 1140.669800,683.268616 
	C1138.596680,672.342834 1130.894409,665.466125 1120.335938,662.059937 
	C1110.980713,659.042053 1101.500732,659.304260 1090.954224,661.186279 
	C1088.816284,681.772949 1089.935791,702.296631 1089.651001,724.727295 
z"/>
<path fill="#0A3748" opacity="1.000000" stroke="none" 
	d="
M2810.794678,749.912476 
	C2810.557373,739.614868 2810.617188,730.279480 2809.998047,720.989380 
	C2809.393066,711.914185 2809.082275,711.962097 2800.532715,709.905640 
	C2798.309326,709.370850 2796.141602,708.604675 2793.388672,707.776367 
	C2793.698242,703.958923 2793.986084,700.408508 2794.228760,697.414734 
	C2803.897217,697.414734 2812.845215,697.246399 2821.783691,697.467834 
	C2828.948975,697.645325 2830.125244,699.078918 2829.997803,706.747009 
	C2829.671143,726.390320 2829.028809,746.031067 2828.955078,765.674500 
	C2828.922852,774.266418 2829.970215,782.862427 2830.566162,792.060852 
	C2835.821045,792.913452 2840.356201,793.649292 2845.983887,794.562439 
	C2845.465332,798.591797 2844.942871,802.651550 2844.486084,806.200317 
	C2834.592285,806.200317 2825.717041,806.200317 2816.664062,806.200317 
	C2815.512207,801.044922 2814.532227,796.658264 2813.265625,790.988770 
	C2811.373779,792.903748 2810.242188,793.917664 2809.262207,795.061462 
	C2797.949219,808.266113 2783.319580,810.364380 2767.414795,807.065613 
	C2755.776123,804.651733 2748.740723,796.673401 2746.413330,785.430420 
	C2744.607178,776.707275 2744.134521,767.643738 2743.760986,758.702698 
	C2743.124512,743.462341 2743.030762,728.199341 2742.705078,712.744507 
	C2736.832520,710.871460 2732.189941,709.390686 2726.937012,707.715271 
	C2727.338623,703.984924 2727.717285,700.466003 2728.045898,697.412842 
	C2737.285645,697.412842 2745.870117,697.242493 2754.444336,697.466187 
	C2761.437256,697.648621 2762.626465,699.287842 2762.501709,706.816345 
	C2762.193604,725.462769 2761.885986,744.109375 2761.650635,762.756775 
	C2761.604492,766.414307 2761.605713,770.111511 2762.067627,773.728699 
	C2763.181396,782.446777 2766.400146,790.060120 2775.598633,792.906250 
	C2784.855957,795.770691 2793.431396,793.985901 2800.580811,787.194153 
	C2806.096191,781.955017 2809.173584,775.310791 2810.022949,767.840698 
	C2810.660156,762.235168 2810.564209,756.546326 2810.794678,749.912476 
z"/>
<path fill="#0A3748" opacity="1.000000" stroke="none" 
	d="
M1454.229248,705.193848 
	C1453.855957,709.931213 1450.901978,709.496094 1448.274170,709.504639 
	C1440.647461,709.529358 1433.020752,709.513367 1424.062256,709.513367 
	C1424.855469,737.395569 1422.668091,764.496094 1425.843018,792.177551 
	C1432.960205,792.971191 1439.482666,793.698486 1447.085205,794.546265 
	C1446.699951,798.446655 1446.323608,802.257202 1445.892700,806.620361 
	C1426.695801,806.620361 1407.934692,806.620361 1388.573120,806.620361 
	C1388.302856,803.217529 1388.047363,800.000061 1387.770752,796.518127 
	C1393.357056,795.041260 1398.436523,793.698425 1404.461548,792.105530 
	C1408.048462,765.004822 1405.348389,737.786926 1406.358276,709.961731 
	C1400.655762,709.700500 1395.785767,709.477356 1390.153076,709.219360 
	C1389.683960,706.529175 1389.193970,703.719971 1388.634521,700.511719 
	C1394.672852,698.202393 1400.181519,696.095642 1406.241089,693.778259 
	C1406.241089,687.185303 1406.136597,680.886780 1406.259644,674.592590 
	C1406.729370,650.561523 1420.358887,636.743530 1444.372314,636.517578 
	C1451.911621,636.446655 1459.463745,637.722961 1467.852783,638.456238 
	C1467.060913,648.565491 1466.340210,657.765381 1465.569824,667.600220 
	C1461.993408,667.600220 1458.509644,667.600220 1454.802856,667.600220 
	C1453.679565,661.450256 1452.566650,655.356567 1451.505493,649.546753 
	C1434.367920,646.337646 1426.361816,651.692078 1424.769409,667.972351 
	C1423.869873,677.168701 1424.607178,686.525269 1424.607178,696.863586 
	C1434.317993,696.863586 1443.817993,696.863586 1454.298706,696.863586 
	C1454.298706,700.073792 1454.298706,702.236694 1454.229248,705.193848 
z"/>
<path fill="#083547" opacity="1.000000" stroke="none" 
	d="
M2676.644043,806.722717 
	C2668.596191,807.282166 2661.220947,808.534302 2654.062012,807.766479 
	C2635.602539,805.786743 2622.480225,795.887329 2616.080322,778.313416 
	C2609.720703,760.850403 2609.662842,742.990051 2616.044922,725.535522 
	C2622.751953,707.192200 2636.401123,697.323303 2655.859375,695.717346 
	C2660.150879,695.363220 2664.513916,695.401855 2668.813477,695.699463 
	C2689.042236,697.099792 2703.950684,708.746094 2709.666016,728.203064 
	C2714.062744,743.170532 2714.296143,758.429871 2710.071533,773.506592 
	C2705.325928,790.440857 2694.917236,802.050232 2676.644043,806.722717 
M2691.830566,741.968628 
	C2690.490967,736.509583 2689.719238,730.829529 2687.697510,725.635986 
	C2683.028564,713.641174 2673.866211,707.768005 2661.591553,707.959106 
	C2649.055420,708.154236 2640.887939,714.807922 2636.752197,726.026733 
	C2630.448975,743.126343 2630.581543,760.565796 2636.714111,777.711853 
	C2639.482178,785.451233 2644.632080,791.407898 2652.853760,794.213257 
	C2667.573242,799.235840 2681.629639,792.858704 2687.828613,778.059814 
	C2692.444580,767.040222 2692.564453,755.438354 2691.830566,741.968628 
z"/>
<path fill="#093647" opacity="1.000000" stroke="none" 
	d="
M1806.177490,695.409790 
	C1811.670654,695.771790 1816.415771,695.627136 1820.918579,696.601929 
	C1837.133179,700.112122 1848.351685,709.824646 1853.799316,725.474670 
	C1859.533569,741.947449 1859.837524,758.754272 1854.523315,775.436768 
	C1848.080566,795.662598 1832.763916,807.330994 1811.671753,808.142273 
	C1806.382446,808.345703 1800.940430,808.363403 1795.776978,807.376648 
	C1777.904053,803.961243 1765.956299,793.293823 1760.302612,776.057312 
	C1755.530884,761.509521 1755.198486,746.626465 1759.109131,731.805054 
	C1765.242676,708.559265 1779.970947,697.070618 1806.177490,695.409790 
M1825.924805,714.957214 
	C1807.850220,701.517029 1787.451172,707.509460 1780.821899,728.747803 
	C1775.960327,744.322510 1776.038818,760.282715 1781.136963,775.860535 
	C1785.387695,788.849121 1794.532593,795.571228 1806.796265,795.788635 
	C1819.570435,796.015198 1829.798340,789.362915 1833.471069,776.055542 
	C1836.078979,766.606506 1837.136353,756.451660 1837.086304,746.620972 
	C1837.030518,735.653931 1834.751221,724.760925 1825.924805,714.957214 
z"/>
<path fill="#083547" opacity="1.000000" stroke="none" 
	d="
M1332.980713,807.136780 
	C1326.897217,807.660950 1321.581421,808.331909 1316.291992,808.164368 
	C1294.451294,807.472534 1278.217529,795.018738 1272.337280,774.106934 
	C1268.110107,759.074097 1268.142700,743.801697 1272.582397,728.811218 
	C1278.558594,708.633057 1293.970093,696.688049 1315.095581,695.663635 
	C1321.037476,695.375549 1327.176880,695.367798 1332.970581,696.517212 
	C1350.935181,700.081177 1362.473877,711.258972 1367.555908,728.662476 
	C1371.729370,742.954773 1371.894043,757.563110 1368.201660,772.034546 
	C1363.542236,790.296265 1352.526001,802.474365 1332.980713,807.136780 
M1348.050903,770.339539 
	C1348.388550,768.714111 1348.836914,767.102905 1349.046753,765.461182 
	C1350.924316,750.769531 1350.914551,736.238037 1344.051270,722.617554 
	C1339.126221,712.843933 1331.024414,707.926697 1319.961426,707.952332 
	C1308.881714,707.977966 1300.629028,712.890137 1296.111206,722.848267 
	C1293.545654,728.503174 1291.705933,734.735779 1290.893311,740.887146 
	C1289.044556,754.883118 1289.689453,768.819275 1296.379272,781.704529 
	C1301.247559,791.081604 1309.327515,795.702759 1319.864624,795.768188 
	C1330.391602,795.833618 1338.453857,791.273926 1343.580566,782.056152 
	C1345.337769,778.896423 1346.368896,775.332825 1348.050903,770.339539 
z"/>
<path fill="#093647" opacity="1.000000" stroke="none" 
	d="
M2536.390137,783.371887 
	C2544.642822,793.838745 2555.181885,795.577515 2566.568604,793.166626 
	C2574.289551,791.531799 2581.755127,788.691467 2590.282715,786.102600 
	C2591.871582,788.571960 2593.777100,791.533264 2596.149414,795.220276 
	C2593.108643,797.238770 2590.511475,799.227905 2587.681152,800.795959 
	C2574.639160,808.021057 2560.541260,809.926514 2546.080322,807.486023 
	C2528.563965,804.530029 2516.379639,794.290283 2510.520996,777.509033 
	C2504.152100,759.265076 2504.443115,740.790649 2511.708496,722.821228 
	C2521.710205,698.085999 2552.604248,687.341919 2576.218506,700.029968 
	C2592.787354,708.932312 2601.711914,737.025513 2592.641113,753.956421 
	C2571.555664,753.956421 2550.004395,753.956421 2528.127197,753.956421 
	C2526.994385,765.171387 2530.437500,774.241333 2536.390137,783.371887 
M2547.148926,707.762573 
	C2534.230469,713.589783 2527.686279,725.560120 2528.680908,742.707092 
	C2544.380371,741.515747 2560.057861,740.326111 2575.534180,739.151733 
	C2577.411377,716.277100 2567.734375,705.345703 2547.148926,707.762573 
z"/>
<path fill="#093647" opacity="1.000000" stroke="none" 
	d="
M1544.277344,802.190918 
	C1533.732666,807.212524 1523.319336,808.713562 1512.498657,808.243896 
	C1490.356323,807.282898 1473.947754,794.398254 1468.277222,772.994751 
	C1464.447998,758.541443 1464.588501,743.918823 1468.525391,729.545227 
	C1476.120117,701.817444 1503.632812,688.012207 1530.797485,697.942810 
	C1538.977783,700.933350 1545.209229,706.241028 1549.260986,713.884094 
	C1554.198975,723.198608 1556.190063,733.333923 1555.828979,743.770996 
	C1555.712036,747.146057 1553.712280,750.456055 1552.407349,754.283936 
	C1530.157837,754.283936 1508.640503,754.283936 1486.770630,754.283936 
	C1486.761230,764.986450 1489.241211,774.131897 1494.855957,782.264587 
	C1500.337402,790.204407 1508.048950,795.060852 1517.760742,793.757263 
	C1528.172363,792.359863 1538.380615,789.446411 1550.108887,786.881653 
	C1551.072388,788.439697 1552.924561,791.434509 1555.293335,795.264771 
	C1551.525391,797.690125 1548.255737,799.794800 1544.277344,802.190918 
M1530.120972,739.697998 
	C1533.564331,739.680969 1536.121948,738.571045 1535.710205,734.530823 
	C1535.340698,730.904175 1535.046387,727.211426 1534.106079,723.712524 
	C1531.379761,713.567749 1525.082886,707.938904 1515.352173,706.954102 
	C1505.343140,705.941162 1497.877319,710.174927 1493.012207,718.867737 
	C1489.077271,725.898621 1487.168701,733.478882 1487.274048,742.644165 
	C1501.257202,741.675720 1514.797363,740.738037 1530.120972,739.697998 
z"/>
<path fill="#093647" opacity="1.000000" stroke="none" 
	d="
M1581.811523,804.199829 
	C1578.051392,802.702454 1575.039917,801.406616 1571.427612,799.852356 
	C1572.198120,789.964417 1572.941895,780.417603 1573.718018,770.456177 
	C1577.769409,770.456177 1581.334961,770.456177 1585.448242,770.456177 
	C1586.313965,775.606018 1586.936401,780.764221 1588.129883,785.786804 
	C1588.716431,788.256287 1589.836182,791.035095 1591.620972,792.705505 
	C1597.990723,798.667053 1617.309570,798.186462 1623.634521,792.264587 
	C1629.847656,786.447510 1630.068726,775.881042 1623.207642,770.128479 
	C1618.446411,766.136536 1612.583252,763.426025 1607.109863,760.324158 
	C1599.608276,756.072937 1591.509644,752.686584 1584.566650,747.681396 
	C1573.618652,739.789001 1570.109619,727.986633 1573.984497,715.890808 
	C1577.760620,704.103943 1586.918823,698.604248 1598.280151,696.195618 
	C1608.301758,694.071106 1628.909912,695.956665 1641.193726,699.851685 
	C1640.471558,709.514160 1639.737305,719.339905 1638.963623,729.692810 
	C1634.528931,729.692810 1630.708862,729.692810 1626.939697,729.692810 
	C1625.946655,724.195740 1625.182007,718.971802 1623.980713,713.850281 
	C1623.561646,712.063660 1622.441162,709.996826 1620.993774,708.974976 
	C1615.524170,705.113708 1600.540161,706.327576 1595.200073,710.744446 
	C1589.369141,715.567200 1588.294922,723.643005 1593.804565,729.259216 
	C1597.659302,733.188416 1602.731079,736.078796 1607.604858,738.818298 
	C1615.705078,743.371460 1624.352661,746.988647 1632.267944,751.821899 
	C1640.227417,756.682190 1645.537842,763.789490 1646.256226,773.636963 
	C1647.672485,793.047119 1637.712524,805.381897 1618.031372,807.753784 
	C1606.036743,809.199524 1594.104126,808.471741 1581.811523,804.199829 
z"/>
<path fill="#0A3748" opacity="1.000000" stroke="none" 
	d="
M1707.970337,742.335327 
	C1715.005371,746.245605 1721.745361,749.321167 1727.618042,753.589905 
	C1738.109741,761.216064 1741.228882,771.841003 1738.622803,784.513916 
	C1736.111572,796.726379 1728.609985,803.794861 1716.846802,806.457153 
	C1698.670898,810.570801 1681.250610,808.263306 1664.163452,799.650513 
	C1665.016113,789.860840 1665.843140,780.365112 1666.691284,770.627808 
	C1671.147949,770.627808 1674.948853,770.627808 1678.620728,770.627808 
	C1679.702148,776.760925 1680.140747,782.425842 1681.857056,787.672852 
	C1682.747314,790.394775 1685.471680,793.324463 1688.109497,794.511780 
	C1695.304688,797.750427 1703.118652,797.790161 1710.611450,795.585144 
	C1721.547607,792.366821 1725.110596,778.682434 1716.796875,770.737122 
	C1712.576416,766.703674 1706.924683,764.089478 1701.729736,761.172546 
	C1694.199463,756.944397 1686.232666,753.443115 1678.942261,748.853271 
	C1671.641724,744.257263 1666.873169,737.472839 1665.885254,728.547363 
	C1663.973877,711.276184 1674.945435,698.025879 1693.388062,695.918091 
	C1706.719482,694.394592 1719.916016,695.932434 1734.246582,699.129089 
	C1733.439087,709.273804 1732.632568,719.404785 1731.812134,729.711914 
	C1727.472046,729.711914 1723.597778,729.711914 1719.636353,729.711914 
	C1718.816406,724.301147 1718.206787,719.387024 1717.293701,714.529968 
	C1716.548096,710.563049 1714.287354,707.788269 1709.916992,707.770935 
	C1704.321899,707.748779 1698.453735,706.933960 1693.187988,708.312439 
	C1682.785889,711.035645 1679.663452,723.187866 1687.761719,730.279602 
	C1693.387573,735.205994 1700.716553,738.187744 1707.970337,742.335327 
z"/>
<path fill="#0A3748" opacity="1.000000" stroke="none" 
	d="
M2018.856812,749.139465 
	C2011.679688,743.721802 2006.824219,737.632263 2005.785767,729.091858 
	C2003.627686,711.341919 2014.709473,697.880554 2033.647095,695.876648 
	C2046.945801,694.469543 2060.105225,695.881348 2074.064941,699.201233 
	C2073.252930,709.318787 2072.462891,719.161621 2071.622559,729.632080 
	C2067.636230,729.632080 2063.823730,729.632080 2059.327148,729.632080 
	C2058.738525,725.125793 2058.258545,720.614929 2057.536377,716.143127 
	C2056.707764,711.015564 2054.149902,707.588684 2048.407227,707.482788 
	C2045.095947,707.421692 2041.747681,706.705505 2038.488892,707.025513 
	C2031.932251,707.669373 2026.001099,709.715637 2023.860107,716.979614 
	C2021.943481,723.481934 2024.239990,729.164368 2031.443604,733.793274 
	C2036.454102,737.012939 2042.059570,739.292419 2047.300293,742.171814 
	C2054.279541,746.006409 2061.529785,749.497620 2067.996582,754.078247 
	C2076.496094,760.098572 2079.967285,768.982178 2079.133545,779.374695 
	C2077.917480,794.534790 2070.828369,803.273560 2055.860107,806.629761 
	C2038.065674,810.619446 2020.914429,808.193726 2004.066040,799.663513 
	C2004.880737,789.925720 2005.675049,780.432312 2006.495483,770.625122 
	C2010.844238,770.625122 2014.633179,770.625122 2018.782837,770.625122 
	C2019.300049,775.429382 2019.380981,779.759705 2020.336670,783.887451 
	C2021.058105,787.002808 2022.194702,790.587402 2024.374023,792.692749 
	C2030.649536,798.755127 2050.090820,798.154480 2056.388428,792.248169 
	C2062.251709,786.749268 2062.703857,776.418701 2056.558838,770.724976 
	C2052.731689,767.178772 2047.898682,764.617615 2043.272583,762.056152 
	C2035.426025,757.711731 2027.386230,753.716614 2018.856812,749.139465 
z"/>
<path fill="#093647" opacity="1.000000" stroke="none" 
	d="
M1898.665283,697.416626 
	C1905.163940,697.077454 1908.313843,699.489685 1908.670898,705.368530 
	C1908.807007,707.609924 1909.509888,709.816895 1910.184937,713.191711 
	C1918.098999,704.813293 1925.584717,697.138306 1936.866333,695.951294 
	C1944.437744,695.154602 1952.057617,694.615784 1959.619995,697.842957 
	C1959.716309,699.704590 1959.959717,701.331482 1959.857544,702.936340 
	C1959.224121,712.885132 1958.513062,722.828918 1957.803711,733.124023 
	C1953.620605,733.124023 1949.809326,733.124023 1946.050293,733.124023 
	C1944.847290,725.420349 1943.738525,718.320312 1942.668335,711.467163 
	C1926.348877,710.498291 1917.543091,716.585876 1913.621704,730.841248 
	C1912.832520,733.710327 1912.076294,736.711670 1912.072510,739.653076 
	C1912.052124,755.313232 1912.250000,770.974060 1912.454590,786.633606 
	C1912.475586,788.242065 1913.042480,789.843445 1913.506592,792.217957 
	C1920.078125,792.940308 1926.626587,793.660095 1934.291748,794.502625 
	C1934.064087,798.242554 1933.833496,802.029419 1933.562012,806.488892 
	C1914.303589,806.488892 1895.554932,806.488892 1876.216309,806.488892 
	C1875.858398,803.407837 1875.486328,800.204468 1875.062134,796.552368 
	C1880.602295,795.089294 1885.667358,793.751648 1891.720703,792.153015 
	C1895.007324,765.696655 1894.562134,739.297852 1891.988647,712.373718 
	C1886.119751,710.783752 1880.779541,709.336975 1874.940674,707.755066 
	C1875.377075,703.760498 1875.765381,700.206116 1876.186768,696.349365 
	C1883.876831,696.727539 1890.846313,697.070190 1898.665283,697.416626 
z"/>
<path fill="#093647" opacity="1.000000" stroke="none" 
	d="
M1202.272461,697.456848 
	C1211.552246,699.116699 1208.815674,706.687195 1210.427002,711.417908 
	C1218.055664,706.556519 1225.178467,700.619751 1233.353882,697.198181 
	C1241.635742,693.732239 1250.900146,694.768250 1260.755493,697.568726 
	C1260.137207,709.500854 1259.526123,721.294495 1258.902710,733.325745 
	C1254.307861,733.325745 1250.740112,733.325745 1246.947388,733.325745 
	C1245.723022,725.675903 1244.555542,718.381775 1243.430786,711.354126 
	C1226.037476,710.801025 1216.541382,717.664917 1213.962646,733.076904 
	C1210.708862,752.524109 1212.034912,772.072266 1214.043213,792.194397 
	C1221.092773,792.968933 1227.616333,793.685669 1235.454834,794.546875 
	C1234.912720,798.646851 1234.379639,802.679504 1233.849976,806.684814 
	C1214.603516,806.684814 1196.086304,806.684814 1176.825562,806.684814 
	C1176.488892,803.395447 1176.166748,800.247620 1175.795654,796.622375 
	C1181.358765,795.137390 1186.398804,793.792053 1192.794678,792.084839 
	C1195.173950,765.543274 1195.111084,738.899963 1192.836182,712.262268 
	C1186.476562,710.609863 1181.419312,709.295898 1175.977783,707.882080 
	C1176.141968,704.183777 1176.286255,700.929565 1176.441772,697.425354 
	C1185.073486,697.425354 1193.255371,697.425354 1202.272461,697.456848 
z"/>
<path fill="#053767" opacity="1.000000" stroke="none" 
	d="
M799.920227,616.315430 
	C806.404297,619.725098 812.888306,623.134705 819.455688,627.729553 
	C801.957214,648.671509 784.489624,668.531372 766.759216,688.153931 
	C751.233643,705.336365 735.350952,722.195618 719.767456,739.326416 
	C716.033264,743.431396 711.927002,747.551270 712.012817,753.800110 
	C704.866089,750.470032 697.719421,747.139954 690.254639,742.588013 
	C692.400391,737.471497 694.395569,733.160583 697.415894,729.760254 
	C706.444885,719.595642 715.754883,709.671021 725.215759,699.905090 
	C728.430603,696.586609 730.608582,693.235474 730.952087,688.346191 
	C737.893066,688.181824 743.932129,688.181824 750.555725,688.181824 
	C750.297974,683.222717 750.114624,679.695435 750.027466,675.455811 
	C751.475037,672.126648 752.378906,669.120178 754.257446,666.962097 
	C761.395813,658.761536 768.882324,650.865173 776.175781,642.798218 
	C784.127075,634.003540 792.008423,625.145752 799.920227,616.315430 
z"/>
<path fill="#04265A" opacity="1.000000" stroke="none" 
	d="
M712.664429,754.208008 
	C711.927002,747.551270 716.033264,743.431396 719.767456,739.326416 
	C735.350952,722.195618 751.233643,705.336365 766.759216,688.153931 
	C784.489624,668.531372 801.957214,648.671509 819.837341,628.294312 
	C826.877563,631.184998 833.619446,634.696045 840.190063,639.117920 
	C836.200134,644.164551 832.376953,648.296082 828.564087,652.437134 
	C820.266357,661.448853 811.880493,670.381592 803.699280,679.497925 
	C787.795654,697.219238 772.011841,715.047974 756.170471,732.825134 
	C750.006836,739.741882 743.760498,746.586609 737.707764,753.598755 
	C736.711487,754.752991 736.522766,756.604370 735.960815,758.133545 
	C728.412598,756.960999 720.864380,755.788452 712.664429,754.208008 
z"/>
<path fill="#050742" opacity="1.000000" stroke="none" 
	d="
M863.311768,651.511719 
	C872.958801,656.648010 882.817932,661.429260 892.188660,667.028076 
	C900.335938,671.895874 900.206116,680.187927 892.442322,685.500244 
	C890.533752,686.806213 888.399109,687.784363 886.356445,688.891174 
	C854.491638,706.157654 822.607727,723.389099 790.780457,740.724487 
	C786.861450,742.859131 783.242737,745.545044 778.833435,747.364990 
	C779.517700,744.129150 780.368164,741.070923 782.264160,738.945251 
	C800.927734,718.020325 819.778931,697.262817 838.538269,676.423157 
	C841.400085,673.243958 843.784241,669.589111 846.881409,666.677856 
	C852.309875,661.575378 855.663940,654.196533 863.311768,651.511719 
z"/>
<path fill="#04154D" opacity="1.000000" stroke="none" 
	d="
M862.851929,650.954590 
	C855.663940,654.196533 852.309875,661.575378 846.881409,666.677856 
	C843.784241,669.589111 841.400085,673.243958 838.538269,676.423157 
	C819.778931,697.262817 800.927734,718.020325 782.264160,738.945251 
	C780.368164,741.070923 779.517700,744.129150 778.115967,747.470459 
	C765.708435,756.463867 751.831970,758.760559 736.647461,758.384460 
	C736.522766,756.604370 736.711487,754.752991 737.707764,753.598755 
	C743.760498,746.586609 750.006836,739.741882 756.170471,732.825134 
	C772.011841,715.047974 787.795654,697.219238 803.699280,679.497925 
	C811.880493,670.381592 820.266357,661.448853 828.564087,652.437134 
	C832.376953,648.296082 836.200134,644.164551 840.672119,639.637207 
	C848.347778,642.963013 855.369934,646.680237 862.851929,650.954590 
z"/>
<path fill="#0A3748" opacity="1.000000" stroke="none" 
	d="
M2874.058838,726.096252 
	C2874.058838,720.188721 2874.058838,715.265564 2874.058838,709.957581 
	C2868.213623,709.667969 2863.328857,709.425903 2857.706787,709.147339 
	C2857.262207,706.200256 2856.840576,703.404053 2856.272705,699.639404 
	C2870.472900,698.424072 2878.144775,690.197449 2882.224609,677.832764 
	C2883.771484,673.144653 2887.282227,673.354553 2892.079590,675.484070 
	C2892.079590,682.288025 2892.079590,689.489990 2892.079590,697.474121 
	C2902.671631,697.474121 2912.245361,697.474121 2922.555420,697.474121 
	C2922.211914,701.863464 2921.935547,705.393677 2921.605957,709.605042 
	C2911.600098,709.605042 2902.359131,709.605042 2892.605713,709.605042 
	C2892.374268,712.877625 2892.040771,715.447510 2892.034912,718.018188 
	C2891.991211,736.681580 2892.003662,755.345215 2892.026367,774.008728 
	C2892.029541,776.672058 2891.946289,779.368042 2892.309326,781.992676 
	C2893.682373,791.918640 2899.679932,796.016846 2909.229248,793.294006 
	C2913.310547,792.130310 2917.150391,790.120667 2921.612549,788.284546 
	C2923.481934,791.118896 2925.246582,793.794373 2927.168213,796.708191 
	C2918.551270,804.632690 2909.386963,809.150391 2897.919678,808.243774 
	C2886.097656,807.309021 2878.725586,801.547913 2876.077637,789.884949 
	C2874.834717,784.411621 2874.257080,778.692383 2874.162354,773.071411 
	C2873.904297,757.744934 2874.064209,742.411316 2874.058838,726.096252 
z"/>
<path fill="#050742" opacity="1.000000" stroke="none" 
	d="
M787.616455,770.938660 
	C796.494080,765.856201 805.371643,760.773682 814.965820,755.280945 
	C816.082642,760.810303 816.760193,765.331360 817.929993,769.721252 
	C820.657288,779.956299 823.453674,790.179443 826.548645,800.307556 
	C828.610657,807.055664 827.101562,810.421265 820.165527,809.954468 
	C805.571777,808.972473 793.554199,815.053284 782.173462,822.728027 
	C770.160522,830.828979 758.703796,839.750854 746.846008,848.089233 
	C744.555298,849.700134 741.534668,850.273254 738.551331,850.363525 
	C739.605164,847.129639 740.852905,844.786316 742.328003,842.596191 
	C755.999268,822.297852 769.800476,802.085938 783.313293,781.682983 
	C785.399414,778.533142 786.213867,774.541138 787.616455,770.938660 
z"/>
<path fill="#083547" opacity="1.000000" stroke="none" 
	d="
M2352.104492,759.841370 
	C2352.402588,771.042114 2352.700684,781.269165 2353.015625,792.072144 
	C2359.274658,792.967834 2364.430664,793.705688 2370.385010,794.557739 
	C2370.103516,798.467957 2369.826172,802.319824 2369.514648,806.644409 
	C2351.714355,806.644409 2334.553223,806.644409 2316.605713,806.644409 
	C2316.244385,803.699951 2315.856689,800.540283 2315.375244,796.615417 
	C2320.775635,795.186646 2325.780273,793.862488 2332.065186,792.199646 
	C2335.427734,765.792725 2334.674561,739.194824 2332.516846,712.199585 
	C2326.514893,710.714294 2321.447021,709.460144 2315.700684,708.038086 
	C2315.890625,704.260559 2316.067627,700.743408 2316.231201,697.487793 
	C2327.021973,697.487793 2337.230957,697.202148 2347.411865,697.611084 
	C2352.327637,697.808594 2353.514893,700.489807 2353.342285,707.055420 
	C2352.888672,724.325073 2352.511963,741.596802 2352.104492,759.841370 
z"/>
<path fill="#087798" opacity="1.000000" stroke="none" 
	d="
M689.895752,609.717102 
	C702.033264,600.986572 715.466980,595.622925 731.189941,594.965576 
	C731.010132,597.842834 730.433838,600.240784 728.989014,601.867126 
	C711.574585,621.469910 694.010559,640.939575 676.538818,660.491638 
	C672.586426,664.914551 668.003418,669.054321 667.098755,675.902954 
	C657.460205,675.963318 648.737366,675.846558 640.027954,675.016846 
	C640.972534,672.267395 641.476990,669.850281 642.901367,668.253967 
	C655.829590,653.764343 668.983826,639.476440 681.920532,624.994263 
	C685.815430,620.634033 690.288513,616.395691 689.895752,609.717102 
z"/>
<path fill="#06678C" opacity="1.000000" stroke="none" 
	d="
M668.014465,675.725769 
	C668.003418,669.054321 672.586426,664.914551 676.538818,660.491638 
	C694.010559,640.939575 711.574585,621.469910 728.989014,601.867126 
	C730.433838,600.240784 731.010132,597.842834 732.009644,595.098755 
	C741.265259,595.063232 750.501221,595.732422 759.754028,597.215210 
	C757.434082,600.759216 755.176514,603.562439 752.747375,606.208252 
	C737.164001,623.181946 721.231323,639.849976 706.118042,657.231201 
	C701.376526,662.684204 694.469604,667.252197 693.100342,675.895264 
	C684.130249,675.958374 676.072388,675.842041 668.014465,675.725769 
z"/>
<path fill="#065880" opacity="1.000000" stroke="none" 
	d="
M694.012512,675.715820 
	C694.469604,667.252197 701.376526,662.684204 706.118042,657.231201 
	C721.231323,639.849976 737.164001,623.181946 752.747375,606.208252 
	C755.176514,603.562439 757.434082,600.759216 760.442871,597.654419 
	C766.395325,599.257080 771.675842,601.234070 777.375427,604.402588 
	C776.393799,608.177856 775.401917,611.117432 773.518921,613.281677 
	C766.613037,621.218994 759.438416,628.924011 752.313110,636.668701 
	C743.848450,645.869080 735.071716,654.800598 726.986023,664.320679 
	C724.413757,667.349243 723.617737,671.886414 721.094116,675.912964 
	C711.457031,675.967102 702.734802,675.841492 694.012512,675.715820 
z"/>
<path fill="#064B76" opacity="1.000000" stroke="none" 
	d="
M722.008911,675.733276 
	C723.617737,671.886414 724.413757,667.349243 726.986023,664.320679 
	C735.071716,654.800598 743.848450,645.869080 752.313110,636.668701 
	C759.438416,628.924011 766.613037,621.218994 773.518921,613.281677 
	C775.401917,611.117432 776.393799,608.177856 777.867310,604.905640 
	C784.943176,607.926270 791.946228,611.635254 799.434814,615.829834 
	C792.008423,625.145752 784.127075,634.003540 776.175781,642.798218 
	C768.882324,650.865173 761.395813,658.761536 754.257446,666.962097 
	C752.378906,669.120178 751.475037,672.126648 749.102661,675.460510 
	C739.390808,676.029419 730.699890,675.881348 722.008911,675.733276 
z"/>
<path fill="#0986A4" opacity="1.000000" stroke="none" 
	d="
M689.182617,609.833740 
	C690.288513,616.395691 685.815430,620.634033 681.920532,624.994263 
	C668.983826,639.476440 655.829590,653.764343 642.901367,668.253967 
	C641.476990,669.850281 640.972534,672.267395 639.112427,675.188904 
	C630.686951,676.073975 623.190491,676.073975 615.112732,676.073975 
	C614.780029,685.303894 614.486206,693.456299 614.192383,701.608765 
	C609.095154,698.759338 603.997925,695.909851 598.527832,691.852295 
	C601.402222,686.117188 604.300537,681.282288 607.967529,677.125549 
	C616.271545,667.712280 625.186646,658.832520 633.357727,649.310547 
	C636.224854,645.969421 637.643066,641.384949 639.722900,637.368164 
	C655.971741,628.228943 672.220642,619.089722 689.182617,609.833740 
z"/>
<path fill="#D8E4E9" opacity="1.000000" stroke="none" 
	d="
M614.166748,701.821167 
	C614.486206,693.456299 614.780029,685.303894 615.112732,676.073975 
	C623.190491,676.073975 630.686951,676.073975 639.098877,675.901855 
	C648.737366,675.846558 657.460205,675.963318 667.098755,675.902954 
	C676.072388,675.842041 684.130249,675.958374 693.100342,675.895264 
	C702.734802,675.841492 711.457031,675.967102 721.094116,675.912964 
	C730.699890,675.881348 739.390808,676.029419 749.006592,676.172791 
	C750.114624,679.695435 750.297974,683.222717 750.555725,688.181824 
	C743.932129,688.181824 737.893066,688.181824 730.029541,688.154480 
	C716.818481,688.263794 705.431885,688.400391 693.124146,688.352051 
	C682.161072,688.282166 672.119141,688.397217 661.152344,688.320435 
	C649.196594,688.232910 638.125916,687.530212 627.186096,688.588684 
	C627.186096,695.944153 627.186096,702.129822 626.517822,707.992798 
	C621.971863,705.931641 618.094116,704.193176 614.216370,702.454712 
	C614.216370,702.454712 614.141052,702.033508 614.166748,701.821167 
z"/>
<path fill="#064B76" opacity="1.000000" stroke="none" 
	d="
M694.045288,688.536987 
	C705.431885,688.400391 716.818481,688.263794 729.127686,688.318848 
	C730.608582,693.235474 728.430603,696.586609 725.215759,699.905090 
	C715.754883,709.671021 706.444885,719.595642 697.415894,729.760254 
	C694.395569,733.160583 692.400391,737.471497 689.791992,742.115845 
	C681.265381,738.467896 672.883301,734.070251 664.407715,728.466064 
	C666.175598,724.545898 667.785339,721.610596 669.945068,719.159973 
	C676.714783,711.478516 683.835388,704.102783 690.492798,696.328369 
	C692.276917,694.244995 692.893005,691.161377 694.045288,688.536987 
z"/>
<path fill="#04154D" opacity="1.000000" stroke="none" 
	d="
M786.872925,771.144287 
	C786.213867,774.541138 785.399414,778.533142 783.313293,781.682983 
	C769.800476,802.085938 755.999268,822.297852 742.328003,842.596191 
	C740.852905,844.786316 739.605164,847.129639 737.952576,850.080261 
	C731.470703,850.650940 726.474365,848.036377 722.258667,842.149658 
	C723.670837,837.867920 724.953308,834.801636 726.766541,832.090271 
	C735.946472,818.363403 745.387878,804.809631 754.432678,790.995483 
	C756.310242,788.127930 756.895996,784.414734 758.077087,781.091187 
	C767.427795,777.844116 776.778564,774.597046 786.872925,771.144287 
z"/>
<path fill="#139CB4" opacity="1.000000" stroke="none" 
	d="
M614.449219,703.311646 
	C618.094116,704.193176 621.971863,705.931641 626.689148,708.040161 
	C627.528687,708.410278 627.751465,709.125061 627.751465,709.125061 
	C625.860657,723.676086 626.301758,738.166809 628.714417,752.631042 
	C630.023132,760.476624 631.117676,768.357971 631.469604,777.185791 
	C623.385742,780.877441 621.906738,788.508972 617.532898,793.677795 
	C615.241150,796.386108 614.115051,800.287598 609.544434,800.048462 
	C609.649719,790.159363 608.364624,780.012512 610.140930,770.433289 
	C614.218628,748.442444 615.212097,726.395081 614.449219,703.311646 
z"/>
<path fill="#04265A" opacity="1.000000" stroke="none" 
	d="
M757.260315,781.046814 
	C756.895996,784.414734 756.310242,788.127930 754.432678,790.995483 
	C745.387878,804.809631 735.946472,818.363403 726.766541,832.090271 
	C724.953308,834.801636 723.670837,837.867920 722.029297,841.488525 
	C716.834229,837.847229 711.753601,833.487915 706.663757,827.959106 
	C715.057922,814.595825 723.554443,802.464294 731.773315,790.147400 
	C733.151672,788.081848 733.326904,785.213562 734.058105,782.716187 
	C741.519897,782.144958 748.981689,781.573669 757.260315,781.046814 
z"/>
<path fill="#139CB4" opacity="1.000000" stroke="none" 
	d="
M639.008606,637.516113 
	C637.643066,641.384949 636.224854,645.969421 633.357727,649.310547 
	C625.186646,658.832520 616.271545,667.712280 607.967529,677.125549 
	C604.300537,681.282288 601.402222,686.117188 598.065186,691.341858 
	C594.115967,690.137573 590.073608,688.531006 586.432617,686.276367 
	C576.875122,680.357727 576.876099,671.727966 586.677124,666.157471 
	C603.762146,656.447327 621.076233,647.140137 639.008606,637.516113 
z"/>
<path fill="#065880" opacity="1.000000" stroke="none" 
	d="
M693.124146,688.352051 
	C692.893005,691.161377 692.276917,694.244995 690.492798,696.328369 
	C683.835388,704.102783 676.714783,711.478516 669.945068,719.159973 
	C667.785339,721.610596 666.175598,724.545898 664.021362,727.916138 
	C656.655823,724.908936 649.583130,721.245117 642.444153,716.394287 
	C646.795715,709.924072 651.401062,704.783264 655.561707,699.304749 
	C658.088806,695.977051 659.928650,692.127441 662.077209,688.512268 
	C672.119141,688.397217 682.161072,688.282166 693.124146,688.352051 
z"/>
<path fill="#087798" opacity="1.000000" stroke="none" 
	d="
M658.015259,809.587463 
	C657.051758,809.820679 656.083435,810.273743 655.125427,810.253052 
	C645.941589,810.054138 643.901917,806.530273 647.648499,798.383118 
	C650.266479,792.690125 652.737549,786.832581 654.342712,780.800720 
	C655.695007,775.719238 655.856384,770.292053 656.256653,764.996033 
	C656.530518,761.372986 656.309143,757.712585 656.309143,752.136780 
	C666.245789,757.165833 674.763916,762.013000 683.153870,767.814880 
	C676.070984,778.772339 668.942261,788.645569 662.279419,798.823792 
	C660.208923,801.986816 659.401123,805.976318 658.015259,809.587463 
z"/>
<path fill="#083547" opacity="1.000000" stroke="none" 
	d="
M1972.714478,639.671997 
	C1977.819092,639.663513 1982.078247,639.663513 1987.109253,639.663513 
	C1986.169189,657.806213 1985.280151,674.965759 1984.373657,692.463806 
	C1979.996216,692.463806 1976.425171,692.463806 1973.125854,692.463806 
	C1972.468140,691.548767 1971.803345,691.049438 1971.758423,690.499329 
	C1970.567261,675.941040 1969.379883,661.381775 1968.354126,646.811157 
	C1968.152344,643.942627 1965.956421,639.697205 1972.714478,639.671997 
z"/>
<path fill="#053767" opacity="1.000000" stroke="none" 
	d="
M733.221436,782.484741 
	C733.326904,785.213562 733.151672,788.081848 731.773315,790.147400 
	C723.554443,802.464294 715.057922,814.595825 706.338013,827.380920 
	C701.497192,825.244446 696.972961,822.516602 692.337036,818.614136 
	C698.130615,808.653564 704.237183,799.993286 709.834167,791.015259 
	C711.850708,787.780457 712.642639,783.782227 713.993408,780.132385 
	C720.123840,780.839355 726.254333,781.546387 733.221436,782.484741 
z"/>
<path fill="#065880" opacity="1.000000" stroke="none" 
	d="
M658.840576,809.723145 
	C659.401123,805.976318 660.208923,801.986816 662.279419,798.823792 
	C668.942261,788.645569 676.070984,778.772339 683.546204,768.363342 
	C688.511292,769.987366 692.950073,772.029541 697.633484,775.181641 
	C694.862061,780.926147 691.731323,785.490784 688.856812,790.211487 
	C684.489258,797.384094 680.299561,804.665100 676.034302,811.900024 
	C670.578186,811.219604 665.122070,810.539185 658.840576,809.723145 
z"/>
<path fill="#0986A4" opacity="1.000000" stroke="none" 
	d="
M609.296509,800.928894 
	C614.115051,800.287598 615.241150,796.386108 617.532898,793.677795 
	C621.906738,788.508972 623.385742,780.877441 631.327393,778.066284 
	C632.024414,792.823669 632.024414,807.663208 632.024414,823.212036 
	C624.641602,823.212036 617.534302,823.212036 609.048584,823.212036 
	C609.048584,816.104980 609.048584,808.957153 609.296509,800.928894 
z"/>
<path fill="#064B76" opacity="1.000000" stroke="none" 
	d="
M676.577881,812.343506 
	C680.299561,804.665100 684.489258,797.384094 688.856812,790.211487 
	C691.731323,785.490784 694.862061,780.926147 698.151489,775.571655 
	C703.187744,776.342590 707.950500,777.833496 713.353394,779.728394 
	C712.642639,783.782227 711.850708,787.780457 709.834167,791.015259 
	C704.237183,799.993286 698.130615,808.653564 691.920410,818.116028 
	C686.784058,816.790710 681.952759,814.788818 676.577881,812.343506 
z"/>
<path fill="#087798" opacity="1.000000" stroke="none" 
	d="
M661.152344,688.320435 
	C659.928650,692.127441 658.088806,695.977051 655.561707,699.304749 
	C651.401062,704.783264 646.795715,709.924072 642.059937,715.838257 
	C637.499390,714.272705 633.256653,712.076172 628.382690,709.502319 
	C627.751465,709.125061 627.528687,708.410278 627.357422,708.362915 
	C627.186096,702.129822 627.186096,695.944153 627.186096,688.588684 
	C638.125916,687.530212 649.196594,688.232910 661.152344,688.320435 
z"/>
<path fill="#0A3748" opacity="1.000000" stroke="none" 
	d="
M2336.278320,674.153931 
	C2330.251465,669.539368 2329.269287,663.847595 2330.616211,657.658997 
	C2332.124756,650.728271 2337.299072,647.211609 2344.527344,647.737000 
	C2351.027100,648.209473 2355.158447,652.338989 2356.024170,659.228882 
	C2357.589844,671.689209 2350.132080,677.679382 2336.278320,674.153931 
z"/>
<path fill="#DCE7EC" opacity="1.000000" stroke="none" 
	d="
M2430.489014,708.810547 
	C2440.088135,709.152771 2448.381104,711.118225 2455.926514,716.724060 
	C2455.926514,733.562073 2456.555176,750.536804 2455.708984,767.437622 
	C2455.129883,779.005005 2449.823486,788.564636 2437.816650,792.670044 
	C2425.693848,796.815002 2415.148926,792.765015 2409.041016,781.523254 
	C2407.779541,779.201111 2406.703857,776.707703 2405.996338,774.166870 
	C2401.887207,759.408875 2401.664551,744.552002 2405.984863,729.840515 
	C2409.446533,718.052124 2416.585693,709.961243 2430.489014,708.810547 
z"/>
<path fill="#DCE7EC" opacity="1.000000" stroke="none" 
	d="
M1089.647217,723.746643 
	C1089.935791,702.296631 1088.816284,681.772949 1090.954224,661.186279 
	C1101.500732,659.304260 1110.980713,659.042053 1120.335938,662.059937 
	C1130.894409,665.466125 1138.596680,672.342834 1140.669800,683.268616 
	C1142.119507,690.909668 1142.402954,699.234131 1141.003418,706.848206 
	C1138.764648,719.028809 1130.185913,726.803406 1118.201904,729.139709 
	C1110.190552,730.701538 1101.730469,729.991089 1093.469116,730.226807 
	C1089.510132,730.339783 1089.640137,727.454529 1089.647217,723.746643 
z"/>
<path fill="#DCE7EC" opacity="1.000000" stroke="none" 
	d="
M2691.892578,742.868530 
	C2692.564453,755.438354 2692.444580,767.040222 2687.828613,778.059814 
	C2681.629639,792.858704 2667.573242,799.235840 2652.853760,794.213257 
	C2644.632080,791.407898 2639.482178,785.451233 2636.714111,777.711853 
	C2630.581543,760.565796 2630.448975,743.126343 2636.752197,726.026733 
	C2640.887939,714.807922 2649.055420,708.154236 2661.591553,707.959106 
	C2673.866211,707.768005 2683.028564,713.641174 2687.697510,725.635986 
	C2689.719238,730.829529 2690.490967,736.509583 2691.892578,742.868530 
z"/>
<path fill="#DCE7EC" opacity="1.000000" stroke="none" 
	d="
M1826.451904,715.491455 
	C1834.751221,724.760925 1837.030518,735.653931 1837.086304,746.620972 
	C1837.136353,756.451660 1836.078979,766.606506 1833.471069,776.055542 
	C1829.798340,789.362915 1819.570435,796.015198 1806.796265,795.788635 
	C1794.532593,795.571228 1785.387695,788.849121 1781.136963,775.860535 
	C1776.038818,760.282715 1775.960327,744.322510 1780.821899,728.747803 
	C1787.451172,707.509460 1807.850220,701.517029 1826.451904,715.491455 
z"/>
<path fill="#DCE7EC" opacity="1.000000" stroke="none" 
	d="
M1347.891357,771.146606 
	C1346.368896,775.332825 1345.337769,778.896423 1343.580566,782.056152 
	C1338.453857,791.273926 1330.391602,795.833618 1319.864624,795.768188 
	C1309.327515,795.702759 1301.247559,791.081604 1296.379272,781.704529 
	C1289.689453,768.819275 1289.044556,754.883118 1290.893311,740.887146 
	C1291.705933,734.735779 1293.545654,728.503174 1296.111206,722.848267 
	C1300.629028,712.890137 1308.881714,707.977966 1319.961426,707.952332 
	C1331.024414,707.926697 1339.126221,712.843933 1344.051270,722.617554 
	C1350.914551,736.238037 1350.924316,750.769531 1349.046753,765.461182 
	C1348.836914,767.102905 1348.388550,768.714111 1347.891357,771.146606 
z"/>
<path fill="#D8E4E9" opacity="1.000000" stroke="none" 
	d="
M2547.900879,707.591797 
	C2567.734375,705.345703 2577.411377,716.277100 2575.534180,739.151733 
	C2560.057861,740.326111 2544.380371,741.515747 2528.680908,742.707092 
	C2527.686279,725.560120 2534.230469,713.589783 2547.900879,707.591797 
z"/>
<path fill="#D8E4E9" opacity="1.000000" stroke="none" 
	d="
M1529.229248,739.749146 
	C1514.797363,740.738037 1501.257202,741.675720 1487.274048,742.644165 
	C1487.168701,733.478882 1489.077271,725.898621 1493.012207,718.867737 
	C1497.877319,710.174927 1505.343140,705.941162 1515.352173,706.954102 
	C1525.082886,707.938904 1531.379761,713.567749 1534.106079,723.712524 
	C1535.046387,727.211426 1535.340698,730.904175 1535.710205,734.530823 
	C1536.121948,738.571045 1533.564331,739.680969 1529.229248,739.749146 
z"/>
</svg>